<svg id="Layer_1" data-name="Layer 1" xmlns="http://www.w3.org/2000/svg" viewBox="0 0 251.65 247.67"><defs><style>.cls-1{fill:#fff;}.cls-2{fill:none;}.cls-3{fill:#ed1c24;}</style></defs><title> </title><path class="cls-1" d="M184,178.34a1.5,1.5,0,0,1-.83-0.25L51.84,90.71a1.5,1.5,0,0,1-.43-2.06L105.74,3.81a1.5,1.5,0,1,1,2.53,1.62L54.73,89l128.88,85.73,58.44-89.19a1.5,1.5,0,0,1,2.51,1.64L185.3,177.67a1.5,1.5,0,0,1-1,.65A1.53,1.53,0,0,1,184,178.34Z"/><path class="cls-1" d="M93.55,221.86a12.81,12.81,0,0,1-13-12.59c0-10.56,8.53-24.46,12.2-30a1,1,0,0,1,.82-0.44h0a1,1,0,0,1,.82.43c3.65,5.23,12.15,18.62,12.15,30A12.82,12.82,0,0,1,93.55,221.86Zm0.05-40.19c-3.87,6-11,18.29-11,27.6a11,11,0,0,0,22,0C104.56,199.27,97.46,187.39,93.6,181.67Z"/><path class="cls-1" d="M128.84,194.51a11.31,11.31,0,0,1-8.49-3.46A13.42,13.42,0,0,1,117,180.66a57.17,57.17,0,0,1,2.25-9.49c0.71-2.39,1.45-4.86,2-7.57,1.85-8.84-.53-14-7.25-15.64-5-1.24-11.93,3.71-17.73,12.62a1,1,0,0,1-1.84-.51C94.06,150.43,91,135.36,85,125c-6.36-11-18.93-22.84-24-27.45a1,1,0,1,1,1.34-1.49c5.18,4.67,17.92,16.73,24.42,27.93,5.59,9.63,8.74,23.23,9.54,33.05,6-8.21,12.83-12.4,18.23-11.05,7.87,2,10.8,8,8.72,18-0.58,2.78-1.33,5.3-2.05,7.73a55.54,55.54,0,0,0-2.18,9.16,11.48,11.48,0,0,0,2.86,8.78,9.49,9.49,0,0,0,7.89,2.8,10.14,10.14,0,0,0,7.85-4.33c2-2.94,2.32-7,.92-11.29-0.68-2.08-1.25-3.66-1.77-5.05a66.29,66.29,0,0,1-2.07-6.33c-1.38-5.14-1-9.15,1-11,4-3.76,12.3-1.78,24.57,5.9a1,1,0,0,1-1.06,1.7c-11.08-6.94-18.94-9.12-22.14-6.13-1.4,1.3-1.56,4.77-.41,9,0.67,2.49,1.29,4.19,2,6.16,0.52,1.41,1.1,3,1.79,5.13,1.6,4.94,1.19,9.57-1.16,13a12.13,12.13,0,0,1-9.38,5.2Q129.32,194.51,128.84,194.51Z"/><path class="cls-1" d="M104.9,90.95A12.18,12.18,0,0,1,92.56,79c0-10,8.08-23.16,11.55-28.37a1,1,0,0,1,.82-0.44,1.07,1.07,0,0,1,.83.43c3.46,5,11.51,17.63,11.51,28.39A12.18,12.18,0,0,1,104.9,90.95ZM105,53c-3.67,5.68-10.4,17.28-10.4,26a10.36,10.36,0,0,0,20.71,0C115.26,69.57,108.61,58.39,105,53Z"/><rect class="cls-2" x="34.72" y="43.24" width="25.86" height="1.53"/><path class="cls-1" d="M54.23,43.56c-0.54,0-1.07-.19-1.6-0.21s-1.08.12-1.62,0.11-1.07-.19-1.61-0.19-1.08.07-1.62,0.07-1.08-.1-1.61-0.09-1.08.05-1.61,0.07-1.07.1-1.61,0.11-1.08-.08-1.62-0.06-1.07.22-1.6,0.25-1.08,0-1.62.07-1.07.13-1.6,0.18-1.06,0-1.6.06c0.54,0.06,1.06,0,1.6.07s1.06,0.22,1.6.25l1.62,0.1c0.54,0,1.08,0,1.62,0s1.07,0.15,1.61.17l1.61,0c0.54,0,1.08,0,1.61,0h1.61c0.54,0,1.08.07,1.62,0.06l1.62,0c0.54,0,1.07-.13,1.61-0.15l1.61-.08c0.54,0,1.07-.08,1.61-0.11s1.09,0.11,1.63.07,1.08-.1,1.61-0.15,1-.18,1.49-0.24c-0.54-.06-1-0.08-1.5-0.13s-1.07-.17-1.61-0.2-1.08,0-1.62,0S54.77,43.58,54.23,43.56Z"/><rect class="cls-2" x="23.73" y="58.17" width="27.3" height="1.53" transform="translate(-0.08 0.05) rotate(-0.08)"/><path class="cls-1" d="M44.33,58.47c-0.57,0-1.13-.19-1.69-0.2s-1.14.12-1.71,0.11-1.13-.19-1.7-0.19-1.14.07-1.71,0.07-1.14-.09-1.7-0.09-1.14.06-1.7,0.07-1.13.1-1.7,0.11-1.14-.08-1.71-0.05-1.13.22-1.69,0.25-1.14,0-1.71.07-1.13.13-1.69,0.18-1.12,0-1.69.06c0.57,0.06,1.12,0,1.68.06s1.12,0.22,1.69.25L29,59.28c0.57,0,1.14,0,1.71,0s1.13,0.15,1.7.17l1.71,0c0.57,0,1.14,0,1.7,0h1.7c0.57,0,1.14.07,1.71,0.06l1.71,0c0.57,0,1.13-.13,1.7-0.15l1.7-.08c0.57,0,1.13-.08,1.7-0.11s1.15,0.11,1.72.07,1.14-.1,1.7-0.15,1-.18,1.57-0.24c-0.57-.06-1-0.08-1.59-0.12s-1.13-.17-1.7-0.2-1.14,0-1.71,0S44.9,58.5,44.33,58.47Z"/><rect class="cls-2" x="53.95" y="28" width="21.17" height="1.53"/><path class="cls-1" d="M69.92,28.32c-0.44,0-.87-0.19-1.31-0.21s-0.88.12-1.32,0.11S66.4,28,66,28s-0.88.07-1.32,0.07S63.76,28,63.31,28s-0.88.05-1.32,0.07-0.88.1-1.32,0.11-0.89-.08-1.33-0.06-0.87.22-1.31,0.25-0.88,0-1.32.07-0.87.13-1.31,0.18-0.87,0-1.31.06c0.44,0.06.87,0,1.31,0.07S56.27,29,56.71,29L58,29.1c0.44,0,.88,0,1.32,0s0.88,0.15,1.32.17l1.32,0c0.44,0,.88,0,1.32,0h1.32c0.44,0,.88.07,1.32,0.06l1.32,0c0.44,0,.88-0.13,1.32-0.15l1.32-.08c0.44,0,.88-0.08,1.32-0.11s0.89,0.11,1.33.07,0.88-.1,1.32-0.15,0.78-.18,1.22-0.24c-0.44-.06-0.79-0.08-1.23-0.13s-0.87-.17-1.31-0.2-0.89,0-1.33,0S70.36,28.35,69.92,28.32Z"/><rect class="cls-2" x="29.07" y="59.86" width="1.53" height="27.3" transform="translate(-43.73 103.23) rotate(-89.9)"/><path class="cls-1" d="M36.78,73.08c-0.57,0-1.13-.19-1.69-0.21S33.95,73,33.38,73s-1.13-.19-1.7-0.19-1.14.07-1.71,0.06-1.14-.1-1.7-0.09-1.14.05-1.7,0.06-1.13.09-1.7,0.11-1.14-.08-1.71-0.06-1.13.22-1.69,0.25-1.14,0-1.71.07-1.13.13-1.69,0.18-1.12,0-1.69.06c0.57,0.06,1.12,0,1.68.07s1.12,0.22,1.69.26l1.71,0.1c0.57,0,1.14,0,1.71,0s1.13,0.15,1.7.17l1.71,0c0.57,0,1.14,0,1.7,0H30c0.57,0,1.14.07,1.71,0.06l1.71,0c0.57,0,1.13-.13,1.7-0.15l1.7-.08c0.57,0,1.13-.08,1.7-0.11s1.15,0.11,1.72.07,1.14-.1,1.71-0.15,1-.18,1.57-0.24c-0.57-.06-1-0.08-1.59-0.13s-1.13-.17-1.69-0.21-1.14,0-1.71,0S37.35,73.1,36.78,73.08Z"/><rect class="cls-2" x="9.13" y="87.61" width="28.67" height="1.53" transform="translate(-0.28 0.07) rotate(-0.18)"/><path class="cls-1" d="M30.76,87.91c-0.6,0-1.18-.18-1.78-0.2s-1.2.12-1.79,0.11S26,87.64,25.4,87.63s-1.2.07-1.79,0.07-1.19-.09-1.79-0.08-1.19.06-1.79,0.07-1.19.1-1.78,0.12-1.2-.08-1.8-0.05S15.27,88,14.67,88s-1.2,0-1.79.08-1.18.14-1.78,0.19-1.18,0-1.77.07c0.59,0.06,1.18,0,1.77.06s1.18,0.21,1.77.25l1.79,0.1c0.6,0,1.2,0,1.79,0s1.19,0.15,1.79.16L20,89c0.6,0,1.2,0,1.79,0h1.79c0.6,0,1.2.07,1.79,0.06l1.79,0c0.59,0,1.19-.14,1.78-0.16l1.79-.08c0.6,0,1.19-.09,1.79-0.12s1.21,0.1,1.8.07,1.19-.1,1.79-0.15,1.06-.18,1.65-0.25c-0.6-.06-1.07-0.07-1.67-0.12S35,88,34.36,87.93s-1.2,0-1.8,0S31.36,87.93,30.76,87.91Z"/><rect class="cls-2" x="2.24" y="102.48" width="27.29" height="1.53" transform="translate(-0.63 0.1) rotate(-0.35)"/><path class="cls-1" d="M22.83,102.75c-0.57,0-1.13-.18-1.69-0.2s-1.14.13-1.71,0.12-1.13-.18-1.7-0.18-1.14.08-1.71,0.08-1.14-.09-1.7-0.08-1.14.06-1.7,0.08-1.13.1-1.7,0.12-1.14-.08-1.71,0-1.12.23-1.69,0.26-1.14,0-1.71.08-1.13.14-1.69,0.19-1.12,0-1.69.07c0.57,0.06,1.12,0,1.68.05s1.12,0.21,1.69.24l1.71,0.09c0.57,0,1.14,0,1.71,0s1.13,0.14,1.7.16h1.7c0.57,0,1.14,0,1.7,0H16c0.57,0,1.14.06,1.71,0.05l1.71,0c0.57,0,1.13-.14,1.7-0.16l1.7-.09c0.57,0,1.13-.09,1.7-0.12s1.15,0.1,1.72.06,1.14-.11,1.7-0.16,1-.19,1.57-0.25C29,103,28.51,103,27.95,103s-1.13-.16-1.7-0.19-1.14,0-1.71,0S23.4,102.77,22.83,102.75Z"/><rect class="cls-2" x="15.12" y="103.95" width="1.53" height="26.46" transform="translate(-101.41 132.2) rotate(-89.58)"/><path class="cls-1" d="M22.62,116.78c-0.55,0-1.09-.2-1.64-0.22s-1.11.11-1.66,0.09-1.1-.2-1.65-0.2-1.1.06-1.65,0.05-1.1-.1-1.65-0.1-1.1,0-1.65.06-1.1.09-1.65,0.1-1.11-.09-1.66-0.07-1.09.21-1.64,0.24-1.1,0-1.65.06-1.09.12-1.64,0.17-1.09,0-1.63,0c0.55,0.07,1.08,0,1.63.08s1.09,0.23,1.64.26l1.65,0.11c0.55,0,1.1,0,1.66,0s1.1,0.16,1.65.18l1.65,0c0.55,0,1.1,0,1.65,0H16c0.55,0,1.1.08,1.65,0.07h1.65c0.55,0,1.1-.12,1.65-0.14l1.65-.07c0.55,0,1.1-.07,1.65-0.1s1.11,0.12,1.66.08,1.1-.09,1.65-0.14,1-.17,1.53-0.23c-0.55-.07-1-0.08-1.54-0.14s-1.09-.18-1.64-0.22-1.11,0-1.66,0S23.17,116.81,22.62,116.78Z"/><rect class="cls-2" x="11.93" y="119.92" width="1.53" height="25.38" transform="translate(-119.97 144.76) rotate(-89.77)"/><path class="cls-1" d="M19.15,132.19c-0.53,0-1-.19-1.57-0.21s-1.06.11-1.59,0.1-1.05-.19-1.58-0.2-1.06.07-1.59,0.06-1.06-.1-1.58-0.1-1.06.05-1.58,0.06S8.6,132,8.07,132s-1.06-.09-1.59-0.06-1,.22-1.58.24-1.06,0-1.59.06-1,.13-1.58.17-1,0-1.57.06c0.53,0.06,1,0,1.57.07s1,0.22,1.57.26l1.59,0.11c0.53,0,1.06,0,1.59,0s1.05,0.16,1.58.17l1.58,0c0.53,0,1.06,0,1.58,0h1.58c0.53,0,1.06.07,1.59,0.07l1.59,0c0.53,0,1.05-.13,1.58-0.14l1.58-.07c0.53,0,1.06-.08,1.59-0.1s1.07,0.11,1.6.08,1.06-.1,1.59-0.14,0.94-.18,1.46-0.24c-0.53-.06-0.95-0.08-1.47-0.13s-1-.17-1.57-0.21-1.06,0-1.59,0S19.68,132.22,19.15,132.19Z"/><rect class="cls-2" x="5.22" y="146.55" width="24.08" height="1.53"/><path class="cls-1" d="M23.38,146.86c-0.5,0-1-.19-1.49-0.21s-1,.12-1.51.11-1-.19-1.5-0.19-1,.07-1.5.07-1-.1-1.5-0.09-1,.06-1.5.07-1,.1-1.5.11-1-.08-1.51-0.06-1,.22-1.49.25-1,0-1.5.07-1,.13-1.49.18-1,0-1.49.06c0.5,0.06,1,0,1.49.06s1,0.22,1.49.25l1.51,0.1c0.5,0,1,0,1.51,0s1,0.15,1.5.17l1.5,0c0.5,0,1,0,1.5,0h1.5c0.5,0,1,.07,1.5.06l1.5,0c0.5,0,1-.13,1.5-0.15l1.5-.08c0.5,0,1-.08,1.5-0.11s1,0.11,1.51.07,1-.1,1.5-0.15,0.89-.18,1.39-0.24c-0.5-.06-0.9-0.08-1.4-0.13s-1-.17-1.49-0.2-1,0-1.51,0S23.88,146.89,23.38,146.86Z"/><rect class="cls-2" x="10.26" y="161.3" width="20.78" height="1.53"/><path class="cls-1" d="M25.93,161.61c-0.43,0-.86-0.19-1.29-0.21s-0.87.12-1.3,0.11-0.86-.19-1.29-0.19-0.87.07-1.3,0.07-0.86-.1-1.3-0.09-0.87.06-1.3,0.07-0.86.1-1.29,0.11-0.87-.08-1.3-0.06-0.86.22-1.29,0.25-0.87,0-1.3.07-0.86.13-1.29,0.18-0.85,0-1.28.06c0.43,0.06.85,0,1.28,0.06s0.85,0.22,1.29.25l1.3,0.1c0.43,0,.87,0,1.3,0s0.86,0.15,1.29.17l1.3,0c0.43,0,.87,0,1.3,0h1.3c0.43,0,.87.07,1.3,0.06l1.3,0c0.43,0,.86-0.13,1.29-0.15l1.29-.08c0.43,0,.86-0.08,1.3-0.11s0.88,0.11,1.31.07,0.86-.1,1.3-0.15S30.61,162,31,162c-0.43-.06-0.78-0.08-1.21-0.13s-0.86-.17-1.29-0.2-0.87,0-1.3,0S26.37,161.64,25.93,161.61Z"/><rect class="cls-2" x="17.19" y="176.05" width="16.68" height="1.53"/><path class="cls-1" d="M29.77,176.37c-0.35,0-.69-0.19-1-0.21s-0.7.12-1,.11-0.69-.19-1-0.19-0.7.07-1,.07-0.69-.1-1-0.09-0.69.06-1,.07-0.69.1-1,.11-0.7-.08-1-0.06-0.69.22-1,.25-0.7,0-1,.07-0.69.13-1,.18-0.68,0-1,.06c0.35,0.06.68,0,1,.06s0.69,0.22,1,.25l1,0.1c0.35,0,.7,0,1,0s0.69,0.15,1,.17l1,0c0.35,0,.7,0,1,0h1c0.35,0,.7.07,1,0.06l1,0c0.35,0,.69-0.13,1-0.15l1-.08c0.35,0,.69-0.08,1-0.11s0.7,0.11,1,.07,0.69-.1,1-0.15,0.62-.18,1-0.24c-0.35-.06-0.62-0.08-1-0.13s-0.69-.17-1-0.2-0.7,0-1,0S30.12,176.39,29.77,176.37Z"/><polygon class="cls-2" points="214.55 167.74 242.79 167.75 242.78 166.22 214.56 166.21 214.55 167.74"/><path class="cls-1" d="M221.49,167.42c0.59,0,1.16.19,1.75,0.21s1.18-.12,1.77-0.11,1.17,0.19,1.76.19,1.18-.07,1.76-0.07,1.17,0.1,1.76.09,1.18-.06,1.76-0.07,1.17-.1,1.76-0.11,1.18,0.08,1.77.06,1.16-.22,1.75-0.25l1.76-.07c0.59,0,1.17-.13,1.75-0.18s1.16,0,1.74-.06c-0.58-.06-1.16,0-1.74-0.06s-1.16-.22-1.75-0.25l-1.76-.1-1.77,0c-0.59,0-1.17-.15-1.76-0.17l-1.76,0-1.76,0h-1.76c-0.59,0-1.18-.07-1.76-0.06l-1.76,0c-0.59,0-1.17.13-1.76,0.15l-1.76.08-1.76.11c-0.59,0-1.19-.11-1.78-0.07l-1.76.15c-0.59,0-1,.18-1.63.24,0.59,0.06,1.06.08,1.64,0.13s1.17,0.17,1.75.2,1.18,0,1.77,0S220.9,167.4,221.49,167.42Z"/><rect class="cls-2" x="221.95" y="151.26" width="26.03" height="1.53" transform="translate(-0.62 0.97) rotate(-0.24)"/><path class="cls-1" d="M228.34,152.5c0.54,0,1.07.18,1.62,0.2s1.09-.12,1.63-0.11,1.08,0.18,1.62.19,1.08-.07,1.63-0.07,1.08,0.09,1.63.08,1.08-.06,1.63-0.07,1.08-.1,1.62-0.12,1.09,0.08,1.63.05,1.07-.23,1.61-0.26,1.09,0,1.63-.08,1.07-.14,1.61-0.19,1.07,0,1.61-.07c-0.54-.06-1.07,0-1.61-0.06s-1.07-.21-1.61-0.25l-1.63-.1c-0.54,0-1.09,0-1.63,0s-1.08-.15-1.62-0.16l-1.63,0c-0.54,0-1.09,0-1.63,0h-1.63c-0.54,0-1.09-.06-1.63-0.05l-1.63,0c-0.54,0-1.08.14-1.62,0.16l-1.62.09c-0.54,0-1.08.09-1.62,0.12s-1.1-.1-1.64-0.06-1.08.11-1.62,0.15-1,.18-1.5.25c0.54,0.06,1,.07,1.51.12s1.08,0.16,1.62.2,1.09,0,1.63,0S227.8,152.47,228.34,152.5Z"/><rect class="cls-2" x="239.99" y="128" width="1.53" height="20.27" transform="translate(100.81 377.84) rotate(-89.57)"/><path class="cls-1" d="M235.59,138.55c0.42,0,.83.19,1.26,0.22s0.85-.11,1.27-0.1,0.84,0.19,1.26.2,0.85-.06,1.27-0.06,0.84,0.1,1.26.1,0.84,0,1.27-.06,0.84-.09,1.26-0.1,0.85,0.09,1.27.07,0.84-.22,1.26-0.24,0.85,0,1.27-.06,0.84-.13,1.26-0.17,0.83,0,1.25-.05c-0.42-.07-0.83,0-1.25-0.07s-0.83-.22-1.25-0.26l-1.27-.11c-0.42,0-.85,0-1.27,0s-0.84-.16-1.26-0.18l-1.27,0c-0.42,0-.85,0-1.27,0h-1.27c-0.42,0-.84-0.08-1.27-0.07l-1.27,0c-0.42,0-.84.13-1.26,0.14l-1.26.07c-0.42,0-.84.08-1.27,0.1s-0.85-.11-1.27-0.08-0.84.09-1.27,0.14-0.75.17-1.17,0.23c0.42,0.06.76,0.08,1.18,0.13s0.84,0.18,1.26.21,0.85,0,1.27,0S235.17,138.52,235.59,138.55Z"/><rect class="cls-2" x="242.02" y="115.26" width="1.53" height="14.86" transform="translate(118.72 364.78) rotate(-89.67)"/><path class="cls-1" d="M239,123.12c0.31,0,.61.19,0.92,0.21s0.62-.12.93-0.1,0.62,0.19.92,0.2,0.62-.07.93-0.06,0.62,0.1.93,0.1,0.62-.05.93-0.06,0.62-.09.93-0.11,0.62,0.09.93,0.06,0.61-.22.92-0.24,0.62,0,.93-0.07,0.61-.13.92-0.17,0.61,0,.92-0.06c-0.31-.06-0.61,0-0.92-0.07s-0.61-.22-0.92-0.26l-0.93-.11c-0.31,0-.62,0-0.93,0s-0.61-.15-0.92-0.17l-0.93,0c-0.31,0-.62,0-0.93,0h-0.93c-0.31,0-.62-0.07-0.93-0.07l-0.93,0c-0.31,0-.62.13-0.93,0.14l-0.93.07c-0.31,0-.62.08-0.93,0.11s-0.63-.11-0.93-0.08-0.62.1-.93,0.14-0.55.18-.86,0.24c0.31,0.06.56,0.08,0.86,0.13s0.61,0.17.92,0.21,0.62,0,.93,0S238.69,123.09,239,123.12Z"/><path class="cls-1" d="M127.82,247.67A123.83,123.83,0,1,1,251.65,123.84,124,124,0,0,1,127.82,247.67ZM127.82,2A121.83,121.83,0,1,0,249.65,123.84,122,122,0,0,0,127.82,2Z"/><path class="cls-1" d="M161.25,77.7c3.53,2.4,10,6.57,12.89,8.43,0.92,0.59,1.48.92,1.48,0.92a1,1,0,0,0,1,0c0.18-.11.32-0.23,0.32-0.23a3.24,3.24,0,0,0,.31-0.25,1,1,0,0,0,.26-1S177.33,85,177,83.94c-1-3.28-3.33-10.62-4.7-14.67,3.37-2.62,9.33-7.48,12-9.65,0.84-.68,1.33-1.12,1.33-1.12a1,1,0,0,0,.32-0.95c-0.05-.2-0.12-0.38-0.12-0.38s-0.06-.18-0.14-0.37a1,1,0,0,0-.84-0.54s-0.65,0-1.74,0c-3.44,0-11.13-.11-15.4-0.06-1.45-4-4.23-11.19-5.47-14.39-0.4-1-.65-1.61-0.65-1.61a1,1,0,0,0-.8-0.59,3.26,3.26,0,0,0-.4,0s-0.19,0-.4,0a1,1,0,0,0-.78.63s-0.23.61-.58,1.64c-1.1,3.26-3.55,10.55-4.81,14.63-4.27.14-11.94,0.56-15.38,0.76-1.08.06-1.73,0.12-1.73,0.12a1,1,0,0,0-.81.58c-0.08.19-.13,0.38-0.13,0.38s-0.06.18-.1,0.39a1,1,0,0,0,.36.93s0.51,0.41,1.38,1.06c2.76,2.05,8.94,6.63,12.42,9.1-1.18,4.1-3.16,11.53-4,14.86-0.28,1-.42,1.68-0.42,1.68a1,1,0,0,0,.3,1,3.76,3.76,0,0,0,.32.24s0.15,0.11.34,0.22a1,1,0,0,0,1-.06s0.54-.36,1.43-1c2.81-2,9.07-6.45,12.49-9h0Z"/><path class="cls-3" d="M170.18,68.64L184.3,57.9a0.07,0.07,0,0,0,0-.08l0-.1,0-.1a0.07,0.07,0,0,0-.07-0.05L166.45,58l-5.86-16.74a0.07,0.07,0,0,0-.07,0h-0.21a0.07,0.07,0,0,0-.07.05l-5.09,17-17.73.4a0.07,0.07,0,0,0-.07,0l0,0.1,0,0.1a0.07,0.07,0,0,0,0,.08l14.59,10.09-5.1,17a0.07,0.07,0,0,0,0,.08l0.08,0.07L147,86.24a0.07,0.07,0,0,0,.08,0l14.1-10.75,14.58,10.1a0.07,0.07,0,0,0,.08,0l0.09-.06,0.08-.07a0.07,0.07,0,0,0,0-.08Z"/></svg>